# xmcd
#
# Track frame offsets: 
#        150
#        8513
#        21605
#        31431
#        43478
#        53679
#        67030
#        75581
#        88219
#        99964
#        109152
#        120229
#        130580
#        141230
#        153464
#        165914
#        175359
#        186160
#        196566
#        208102
#        216742
#        228709
#        239382
#        249667
#        262005
#        274306
#        286353
#        298054
#        307055
#        319326
#        329826
#        338603
#        350778
#
# Disc length: 4790 seconds
#
# Revision: 0
# Processed by: cddbd v1.5.2PL0 Copyright (c) Steve Scherf et al.
# Submitted via: ExactAudioCopyFreeDBPlugin 1.0
#
DISCID=0612b421
DTITLE=Various Artist - Born To Be Wild: The Country and Rockabilly Roo
DTITLE=ts Of Ray Campi
DYEAR=2011
DGENRE=Country
TTITLE0=Sleepy Labeff - All The Time
TTITLE1=Merle Travis - Sweet Temptation
TTITLE2=The Lonesome Drifter - Eager Boy
TTITLE3=Jimmie Skinner - How Low Can You Feel
TTITLE4=Corky Jones - Hot Dog
TTITLE5=The Delmore Brothers - Pan American Boogie
TTITLE6=Bobby and Terry Caraway - Ballin' Keen
TTITLE7=Hank Snow - Blue Ranger
TTITLE8=Sid King and The Five Strings - Let'er Roll
TTITLE9=Jimmie Skinner - Where My Sweet Baby Goes
TTITLE10=Gene O'Quin - Pinball Millionaire
TTITLE11=Elvis Presley - My Baby Left Me
TTITLE12=Bill Carlisle - Rattlesnake Daddy
TTITLE13=Marty Robbins - Pretty Mama
TTITLE14=Merle Travis - Merle's Boogie Woogie
TTITLE15=Johnny Horton - I'm Comin' Home
TTITLE16=Jimmie Skinner - Don't Give Your Heart To A Rambler
TTITLE17=Gene Snowden - Quit Your Triflin'
TTITLE18=Jimmie Skinner - Born To Be Wild
TTITLE19=Jimmy Lee and Wayne Walker - Love Me
TTITLE20=Tommy Scott - Rockin' And Rollin'
TTITLE21=Merle Travis - Lost John Boogie
TTITLE22=Thumper Jones - Rock It
TTITLE23=Webb Pierce - Driftin' Texas Sand
TTITLE24=Glen Glenn - Everybody's Movin'
TTITLE25=Hank Penny - Missouri 
TTITLE26=The Delmore Brothers - I Let The Freight Train Carry Me On
TTITLE27=Joe Clay - Sixteen Chicks
TTITLE28=Jimmy Skinner - You Don't Know My Mind
TTITLE29=Webb Pierce - Teenage Boogie
TTITLE30=Johnny Horton - The Wild One
TTITLE31=Billy Briggs - Chew Tobacco Rag
TTITLE32=Tommy La Beff - Tore Up
EXTD=
EXTT0=
EXTT1=
EXTT2=
EXTT3=
EXTT4=
EXTT5=
EXTT6=
EXTT7=
EXTT8=
EXTT9=
EXTT10=
EXTT11=
EXTT12=
EXTT13=
EXTT14=
EXTT15=
EXTT16=
EXTT17=
EXTT18=
EXTT19=
EXTT20=
EXTT21=
EXTT22=
EXTT23=
EXTT24=
EXTT25=
EXTT26=
EXTT27=
EXTT28=
EXTT29=
EXTT30=
EXTT31=
EXTT32=
PLAYORDER=
